<svg width="25" height="33" viewBox="0 0 25 33" fill="none" xmlns="http://www.w3.org/2000/svg">
<path fill-rule="evenodd" clip-rule="evenodd" d="M20.1941 21.6633C18.871 21.956 17.6099 21.9506 16.3889 21.7224C15.084 21.478 13.8375 20.9759 12.6347 20.3073C11.3809 21 10.0687 21.4753 8.68368 21.6821C7.34967 21.8808 5.96099 21.8271 4.51034 21.4807C3.91259 23.9135 4.54679 25.914 6.08127 27.6003C7.52827 29.1927 9.78442 30.5192 12.5764 31.6738C12.4707 31.3516 12.4014 31.0401 12.3686 30.7394C12.2994 30.111 12.3905 29.5364 12.6383 29.0101C13.2324 27.7373 14.6065 27.0445 16.0645 26.3088C17.9598 25.3474 20.0155 24.3056 20.1941 21.6633ZM8.75658 2.72704C8.20985 1.15886 9.64592 -0.0817183 11.8182 0.00420919C13.298 0.0632843 14.3295 0.64598 15.1679 1.29044C16.5748 2.3699 17.4277 3.61585 18.9293 2.80491C18.9111 3.79844 18.2623 4.47244 16.9064 4.66309C17.1434 5.02291 17.3256 5.42301 17.4349 5.86607C17.4605 5.96811 17.4823 6.07015 17.5005 6.17487C17.8942 6.2984 18.2332 6.48636 18.4883 6.71461C18.7945 6.9885 18.9804 7.32415 18.9949 7.68935C19.0132 8.06796 18.8455 8.42241 18.543 8.71511C19.0715 8.81714 19.4615 9.16891 19.4615 9.59049C19.4615 10.0899 18.9111 10.4954 18.2332 10.4954C17.599 10.4954 17.0741 10.1383 17.0121 9.68179C16.6695 10.4525 16.2577 11.1909 15.5214 11.7816C15.4121 11.8676 15.2991 11.9454 15.1788 12.0179C15.8276 12.0448 16.4654 12.0824 17.085 12.1307C20.4091 12.4019 22.6143 13.374 23.8353 14.6011C24.5278 15.2993 24.9032 16.078 24.9834 16.8594C25.0636 17.6408 24.8522 18.4249 24.3711 19.1365C23.7733 20.0199 22.7601 20.7852 21.3787 21.2874C21.3896 24.6681 18.9548 25.9006 16.7206 27.0311C15.4303 27.6836 14.2165 28.2958 13.75 29.2974C13.5568 29.7109 13.4876 30.1701 13.5423 30.6749C13.6006 31.1959 13.7901 31.7651 14.1181 32.3881C14.1874 32.5036 14.1874 32.6405 14.1036 32.7614C13.9541 32.9762 13.6006 33.0621 13.309 32.952C9.7662 31.6175 6.88678 30.0466 5.10081 28.0837C3.34764 26.1557 2.65148 23.8679 3.41325 21.0887C2.86652 20.8685 2.36718 20.6026 1.9298 20.2992C1.19354 19.789 0.63588 19.1714 0.31149 18.4947C-0.337292 17.1333 -0.0274802 15.5463 1.76214 14.1044C2.37447 13.6103 3.11437 13.229 3.94539 12.9363C4.75819 12.649 5.65482 12.4449 6.59884 12.2999C7.07631 12.2274 7.56472 12.1683 8.06042 12.1254C7.7907 11.9616 7.55014 11.7736 7.34238 11.5668C7.10911 11.3305 6.91594 11.0647 6.77014 10.7666C6.75921 10.7505 6.74463 10.7371 6.73369 10.721C6.53687 10.4632 6.35463 10.1839 6.1979 9.88855C6.03024 10.2403 5.57464 10.4954 5.03885 10.4954C4.36091 10.4954 3.81053 10.0899 3.81053 9.59049C3.81053 9.26558 4.0438 8.97826 4.39735 8.81983C4.19324 8.57279 4.08025 8.29084 4.08025 7.99278C4.08025 7.62759 4.25156 7.28925 4.54679 7.0073C4.78735 6.77637 5.11539 6.58572 5.49445 6.45145C5.51996 6.23932 5.56006 6.02719 5.61473 5.81774C5.99744 4.3516 7.16743 3.33927 8.63266 2.78074C8.6691 2.75926 8.71284 2.74315 8.75658 2.72704ZM13.3454 12.8369C12.8096 13.1001 12.4342 13.4304 12.4743 14.0507C11.4975 13.9352 11.1658 13.6425 10.6373 13.1055C10.3858 13.0571 10.1015 12.9766 9.80994 12.8799C9.72611 12.8826 9.63863 12.888 9.5548 12.8906C8.61808 12.9363 7.69958 13.0142 6.83211 13.1484C5.97557 13.28 5.17006 13.4626 4.45203 13.715C3.75222 13.9621 3.13259 14.2816 2.62961 14.6871C1.17532 15.8605 0.912888 17.1279 1.42681 18.2074C1.68559 18.7498 2.1412 19.2466 2.73895 19.6628C3.344 20.0844 4.09848 20.42 4.94772 20.6349C7.05444 21.1665 9.73704 20.9383 12.2046 19.3782C12.4051 19.1929 12.6128 19.0183 12.8279 18.8545C12.1864 18.433 11.5339 18.1483 10.8742 17.9845C10.0797 17.7858 9.25957 17.759 8.42126 17.8664C8.10051 17.9067 7.79434 17.7482 7.73603 17.5119C7.68135 17.2756 7.8964 17.0501 8.21714 17.0071C9.24499 16.8755 10.2546 16.9131 11.246 17.1575C12.088 17.3669 12.9044 17.7267 13.6953 18.2584C13.8666 18.1537 14.0416 18.0543 14.2238 17.9604C14.9674 17.5683 15.7729 17.2595 16.6258 17.0152C16.9283 16.9292 17.2709 17.0393 17.3876 17.2649C17.5042 17.4878 17.3548 17.7402 17.0522 17.8261C16.2905 18.0436 15.5688 18.3202 14.9091 18.6693C14.4024 18.9351 13.9286 19.2466 13.4912 19.6037C14.3842 20.0951 15.2918 20.4791 16.2212 20.7127C17.2855 20.9812 18.3862 21.0511 19.538 20.8524C21.3677 20.5194 22.6616 19.7138 23.325 18.7391C23.7114 18.1698 23.8827 17.5415 23.8171 16.9158C23.7514 16.2901 23.4526 15.6672 22.8949 15.106C21.8561 14.0587 19.9244 13.229 16.9684 12.9873C16.2285 12.9282 15.4813 12.8853 14.7305 12.8611C14.2639 12.8504 13.8047 12.8423 13.3454 12.8369ZM10.8706 11.8165C11.2934 11.591 11.3954 10.9895 11.8948 11.0029C12.4124 11.0163 12.4816 11.685 12.9481 11.7763L12.9518 11.7978C14.1509 11.6098 15.2043 11.1103 15.7984 10.3262C16.2212 9.67105 16.3889 8.89502 16.5602 8.08676C16.7096 7.38054 16.7278 6.65016 16.5529 5.952C16.2249 4.64429 15.3829 3.87094 14.1072 3.37418C13.3163 3.06806 12.4306 2.91232 11.5412 2.91232C10.6519 2.90963 9.75891 3.06 8.96798 3.36344C7.685 3.85215 6.8394 4.61475 6.50043 5.90904C6.3036 6.66359 6.31818 7.4611 6.49314 8.22371C6.98519 10.3853 8.79667 11.5427 10.8706 11.8165ZM9.12471 6.52127C9.44181 6.52127 9.69695 6.78442 9.69695 7.10665C9.69695 7.42888 9.44181 7.69203 9.12471 7.69203C8.80761 7.69203 8.55247 7.42888 8.55247 7.10665C8.55247 6.78442 8.80761 6.52127 9.12471 6.52127ZM9.92657 9.79457C9.80629 9.66836 9.87555 9.60123 9.99947 9.53947C10.0833 9.49651 10.1963 9.50188 10.3202 9.52604C10.918 9.6442 10.9216 9.6979 11.5923 9.69522C12.2629 9.69253 12.3686 9.62003 12.9481 9.51262C13.0466 9.49382 13.1413 9.48845 13.2252 9.50725C13.4183 9.5529 13.4839 9.66031 13.3637 9.79188C12.5253 10.6968 10.5681 10.4578 9.92657 9.79457ZM13.0866 6.12386C13.032 6.20441 13.0575 6.2796 13.1377 6.31451C13.2871 6.38164 13.586 6.2608 13.7792 6.23126C14.078 6.18562 14.3842 6.19367 14.6904 6.25006C14.8508 6.28228 15.0658 6.36284 15.2262 6.33062C15.3501 6.30377 15.4048 6.21515 15.3392 6.1346C14.9565 5.65394 13.3819 5.67005 13.0866 6.12386ZM7.99845 6.12386C7.94378 6.20441 7.9693 6.2796 8.04948 6.31451C8.19892 6.38164 8.4978 6.2608 8.69097 6.23126C8.98985 6.18562 9.29602 6.19367 9.60218 6.25006C9.76256 6.28228 9.9776 6.36284 10.138 6.33062C10.2619 6.30377 10.3166 6.21515 10.251 6.1346C9.8719 5.65394 8.29369 5.67005 7.99845 6.12386ZM10.9617 8.6802C10.9726 8.61307 11.0419 8.5889 11.1658 8.59427H12.1353C12.2666 8.58621 12.3577 8.60769 12.3723 8.69094C12.3978 8.84131 12.1718 8.95409 12.0151 9.01048C11.7818 9.09641 11.5121 9.10178 11.2752 9.00242C11.1257 8.93798 10.9362 8.82252 10.9617 8.6802ZM14.2202 6.52127C14.5373 6.52127 14.7924 6.78442 14.7924 7.10665C14.7924 7.42888 14.5373 7.69203 14.2202 7.69203C13.9031 7.69203 13.648 7.42888 13.648 7.10665C13.648 6.78442 13.9031 6.52127 14.2202 6.52127ZM18.142 9.02122C17.9744 9.12326 17.7885 9.20919 17.588 9.28169C17.5115 9.3703 17.4677 9.47503 17.4677 9.58512C17.4677 9.89929 17.814 10.1544 18.2404 10.1544C18.6669 10.1544 19.0132 9.89929 19.0132 9.58512C19.0132 9.27095 18.6669 9.01585 18.2404 9.01585C18.204 9.01854 18.1712 9.01854 18.142 9.02122ZM5.80791 9.62271C5.3924 9.52068 5.02427 9.35151 4.73632 9.13669C4.71445 9.12057 4.69259 9.10178 4.67072 9.08567C4.43016 9.18234 4.26614 9.3703 4.26614 9.58512C4.26614 9.89929 4.6124 10.1544 5.03885 10.1544C5.44707 10.1544 5.78239 9.91809 5.80791 9.62271ZM5.09716 8.68288C5.34137 8.69094 5.5637 8.7527 5.74959 8.85205C5.69127 8.67214 5.64024 8.49223 5.59651 8.30695C5.50174 7.89611 5.45071 7.47184 5.45071 7.05026C5.29398 7.13082 5.15912 7.2248 5.04978 7.32952C4.85296 7.51749 4.73632 7.74574 4.73632 7.98472C4.73997 8.24519 4.87483 8.48417 5.09716 8.68288ZM17.5698 6.77637C17.5917 7.24091 17.5479 7.71083 17.4495 8.16463C17.4021 8.38751 17.3438 8.60501 17.2746 8.82251C17.5261 8.73927 17.7448 8.62381 17.9197 8.48417C18.1931 8.26667 18.3498 7.99278 18.3389 7.70009C18.3279 7.45842 18.2004 7.23554 17.9962 7.05026C17.876 6.94554 17.7338 6.85424 17.5698 6.77637ZM12.1754 2.28934V1.98054C12.1754 1.65831 11.8037 1.39785 11.3481 1.39785H11.0674C10.6118 1.39785 10.24 1.661 10.24 1.98054V2.36184C10.6665 2.2974 11.1039 2.26786 11.5412 2.26786C11.749 2.26518 11.9604 2.27323 12.1754 2.28934Z" fill="#053289"/>
</svg>
